<svg xmlns="http://www.w3.org/2000/svg" xmlns:xlink="http://www.w3.org/1999/xlink" width="480" zoomAndPan="magnify" viewBox="0 0 360 359.999987" height="480" preserveAspectRatio="xMidYMid meet" version="1.0"><defs><clipPath id="907fff07f4"><path d="M 78.511719 88 L 280 88 L 280 285.855469 L 78.511719 285.855469 Z M 78.511719 88 " clip-rule="nonzero"/></clipPath><clipPath id="12cd8597de"><path d="M 119 77.355469 L 284.761719 77.355469 L 284.761719 244 L 119 244 Z M 119 77.355469 " clip-rule="nonzero"/></clipPath></defs><rect x="-36" width="432" fill="#ffffff" y="-35.999999" height="431.999984" fill-opacity="1"/><rect x="-36" width="432" fill="#ffffff" y="-35.999999" height="431.999984" fill-opacity="1"/><rect x="-36" width="432" fill="#ffffff" y="-35.999999" height="431.999984" fill-opacity="1"/><g clip-path="url(#907fff07f4)"><path fill="#003f7f" d="M 179.246094 88.984375 C 123.71875 88.984375 78.511719 133.128906 78.511719 187.347656 C 78.511719 241.566406 123.71875 285.710938 179.246094 285.710938 C 234.769531 285.710938 279.980469 241.566406 279.980469 187.347656 C 279.980469 163.90625 271.855469 142.945312 258.0625 125.773438 L 248.578125 136.75 C 260.601562 151.207031 265.308594 167.261719 265.308594 187.347656 C 265.308594 233.8125 226.828125 271.363281 179.246094 271.363281 C 131.660156 271.363281 93.179688 233.808594 93.179688 187.347656 C 93.179688 140.882812 131.660156 103.308594 179.246094 103.308594 C 194.324219 103.308594 205.601562 105.425781 217.914062 112.066406 L 226.925781 100.511719 C 212.507812 92.738281 196.839844 88.984375 179.246094 88.984375 Z M 179.246094 88.984375 " fill-opacity="1" fill-rule="evenodd"/></g><g clip-path="url(#12cd8597de)"><path fill="#003f7f" d="M 141.960938 174.410156 C 146.023438 174.410156 149.097656 177.664062 151.179688 184.175781 C 155.347656 196.378906 158.316406 202.480469 160.085938 202.480469 C 161.4375 202.480469 162.84375 201.464844 164.304688 199.429688 C 193.570312 153.664062 220.652344 116.644531 245.546875 88.371094 C 252.003906 81.046875 262.261719 77.386719 276.324219 77.386719 C 279.65625 77.386719 281.894531 77.691406 283.042969 78.300781 C 284.1875 78.910156 284.757812 79.675781 284.761719 80.589844 C 284.757812 82.011719 283.042969 84.808594 279.605469 88.980469 C 239.398438 136.171875 202.113281 186.003906 167.742188 238.488281 C 165.34375 242.152344 160.449219 243.980469 153.054688 243.980469 C 145.554688 243.980469 141.128906 243.675781 139.773438 243.066406 C 136.234375 241.539062 132.066406 233.761719 127.277344 219.726562 C 121.859375 204.164062 119.152344 194.402344 119.152344 190.433594 C 119.152344 186.164062 122.796875 182.042969 130.085938 178.078125 C 134.566406 175.636719 138.523438 174.417969 141.960938 174.417969 " fill-opacity="1" fill-rule="nonzero"/></g></svg>