<svg xmlns="http://www.w3.org/2000/svg" xmlns:xlink="http://www.w3.org/1999/xlink" width="480" zoomAndPan="magnify" viewBox="0 0 360 359.999987" height="480" preserveAspectRatio="xMidYMid meet" version="1.0"><defs><clipPath id="cda6c0b7ae"><path d="M 92.410156 55.585938 L 260.410156 55.585938 L 260.410156 294.085938 L 92.410156 294.085938 Z M 92.410156 55.585938 " clip-rule="nonzero"/></clipPath></defs><rect x="-36" width="432" fill="#ffffff" y="-35.999999" height="431.999984" fill-opacity="1"/><rect x="-36" width="432" fill="#ffffff" y="-35.999999" height="431.999984" fill-opacity="1"/><rect x="-36" width="432" fill="#ffffff" y="-35.999999" height="431.999984" fill-opacity="1"/><g clip-path="url(#cda6c0b7ae)"><path fill="#ff5757" d="M 239.367188 82.796875 L 208.046875 82.796875 C 205.738281 67.417969 192.429688 55.585938 176.410156 55.585938 C 160.386719 55.585938 147.082031 67.417969 144.769531 82.796875 L 113.457031 82.796875 C 101.886719 82.796875 92.476562 92.203125 92.476562 103.765625 L 92.476562 128.996094 C 92.476562 131.628906 94.613281 133.765625 97.25 133.765625 L 102.65625 133.765625 L 102.65625 261.992188 C 102.65625 279.6875 117.0625 294.085938 134.769531 294.085938 L 218.054688 294.085938 C 235.761719 294.085938 250.167969 279.6875 250.167969 261.992188 L 250.167969 133.765625 L 255.574219 133.765625 C 258.207031 133.765625 260.347656 131.628906 260.347656 128.996094 L 260.347656 103.765625 C 260.347656 92.203125 250.933594 82.796875 239.367188 82.796875 Z M 176.410156 65.125 C 187.152344 65.125 196.152344 72.710938 198.34375 82.796875 L 154.472656 82.796875 C 156.664062 72.710938 165.667969 65.125 176.410156 65.125 Z M 240.621094 261.992188 C 240.621094 274.429688 230.5 284.546875 218.054688 284.546875 L 134.769531 284.546875 C 122.324219 284.546875 112.203125 274.429688 112.203125 261.992188 L 112.203125 133.765625 L 240.621094 133.765625 Z M 250.800781 124.226562 L 102.023438 124.226562 L 102.023438 103.765625 C 102.023438 97.464844 107.152344 92.339844 113.457031 92.339844 L 239.367188 92.339844 C 245.671875 92.339844 250.800781 97.464844 250.800781 103.765625 Z M 134.644531 252.621094 L 134.644531 152.359375 C 134.644531 149.726562 136.78125 147.589844 139.417969 147.589844 C 142.050781 147.589844 144.1875 149.726562 144.1875 152.359375 L 144.1875 252.621094 C 144.1875 255.253906 142.050781 257.390625 139.417969 257.390625 C 136.78125 257.390625 134.644531 255.253906 134.644531 252.621094 Z M 172.855469 252.621094 L 172.855469 152.359375 C 172.855469 149.726562 174.992188 147.589844 177.625 147.589844 C 180.261719 147.589844 182.398438 149.726562 182.398438 152.359375 L 182.398438 252.621094 C 182.398438 255.253906 180.261719 257.390625 177.625 257.390625 C 174.992188 257.390625 172.855469 255.253906 172.855469 252.621094 Z M 211.070312 252.621094 L 211.070312 152.359375 C 211.070312 149.726562 213.207031 147.589844 215.839844 147.589844 C 218.476562 147.589844 220.613281 149.726562 220.613281 152.359375 L 220.613281 252.621094 C 220.613281 255.253906 218.476562 257.390625 215.839844 257.390625 C 213.207031 257.390625 211.070312 255.253906 211.070312 252.621094 Z M 211.070312 252.621094 " fill-opacity="1" fill-rule="nonzero"/></g></svg>